<svg xmlns="http://www.w3.org/2000/svg" width="58.39" height="50.443" viewBox="0 0 58.39 50.443">
  <path id="cloud" d="M-459.324,30.28a12.358,12.358,0,0,1-3.426.481A12.2,12.2,0,0,1-475,18.619,12.18,12.18,0,0,1-464.683,6.627,12.262,12.262,0,0,1-453.767,0a12.267,12.267,0,0,1,10.114,5.29,12.288,12.288,0,0,1,5.4-1.242A12.2,12.2,0,0,1-426,16.19a12.2,12.2,0,0,1-12.25,12.143,12.456,12.456,0,0,1-1.8-.131A12.265,12.265,0,0,1-450.5,34,12.266,12.266,0,0,1-459.324,30.28Z" transform="matrix(0.921, 0.391, -0.391, 0.921, 450.525, 185.597)" fill="#fff" opacity="0.67"/>
</svg>
