<svg xmlns="http://www.w3.org/2000/svg" width="45" height="22" viewBox="0 0 45 22">
  <g id="Group_19" data-name="Group 19" transform="translate(-306 -336)">
    <path id="Subtraction_3" data-name="Subtraction 3" d="M-866.074,13.5h-29.852A14.958,14.958,0,0,1-891.1,3.907,14.963,14.963,0,0,1-881,0a14.963,14.963,0,0,1,10.1,3.907,14.959,14.959,0,0,1,4.828,9.592Z" transform="translate(1210 336)" fill="#ffcd82"/>
    <line id="Line_8" data-name="Line 8" x2="45" transform="translate(306 349.5)" fill="none" stroke="#404040" stroke-width="1"/>
    <g id="Polygon_2" data-name="Polygon 2" transform="translate(333 358) rotate(180)" fill="#404040">
      <path d="M 8.190984725952148 8.5 L 0.8090149760246277 8.5 L 4.5 1.118029952049255 L 8.190984725952148 8.5 Z" stroke="none"/>
      <path d="M 4.5 2.236070156097412 L 1.618034839630127 8 L 7.381965160369873 8 L 4.5 2.236070156097412 M 4.5 0 L 9 9 L 0 9 L 4.5 0 Z" stroke="none" fill="#404040"/>
    </g>
  </g>
</svg>
